# Blender v2.80 (sub 75) OBJ File: 'W_QS_ClipS_1.blend'
# www.blender.org
mtllib W_QS_ClipS_1.mtl
o W_QS_ClipS_1
v 0.005100 0.008214 0.005000
v 0.005100 0.008889 0.005000
v 0.004591 0.008214 0.005000
v 0.000000 0.008889 0.005000
v 0.000000 0.008214 0.005000
v 0.003510 0.009426 0.005000
v 0.005100 0.009233 0.005000
v 0.005100 0.009426 0.005000
v 0.000000 0.009426 0.005000
v 0.000000 0.009251 0.005000
v 0.000000 0.009247 0.005000
v 0.000000 0.009233 0.005000
v 0.005100 0.004786 0.005000
v 0.000363 0.004786 0.005000
v 0.005100 0.004697 0.005000
v 0.000000 0.004697 0.005000
v 0.004784 0.003614 0.005000
v 0.000000 0.003614 0.005000
v 0.000000 0.004786 0.005000
v 0.005100 0.003614 0.005000
v 0.000000 0.004663 0.004455
v 0.000000 0.003513 0.004545
v 0.005100 0.004663 0.004455
v 0.000000 0.007970 0.004100
v 0.000000 0.007860 0.003993
v 0.000000 0.009511 0.004782
v 0.005100 0.009511 0.004782
v 0.005100 0.008042 0.004236
v 0.000000 0.008042 0.004236
v 0.005100 0.003513 0.004545
v 0.005100 0.007970 0.004100
v 0.005100 0.004673 0.004288
v 0.000000 0.004673 0.004288
v 0.005100 0.003438 0.004373
v 0.001000 0.003438 0.004373
v 0.005100 0.009735 0.004525
v 0.000000 0.009735 0.004525
v 0.005100 0.007722 0.003924
v 0.005100 0.007860 0.003993
v 0.005100 0.003374 0.004129
v 0.005100 0.003390 0.004255
v 0.005100 0.004737 0.004133
v 0.000000 0.004737 0.004133
v 0.000000 0.003332 0.004219
v 0.001000 0.003390 0.004255
v 0.001000 0.003332 0.004219
v 0.000000 0.007722 0.003924
v 0.000000 0.010031 0.004358
v 0.005100 0.009356 0.000000
v 0.005100 0.010031 0.004358
v 0.000000 0.009356 0.000000
v 0.005100 0.007570 0.003900
v 0.001000 0.003374 0.004129
v 0.005100 0.003374 0.002660
v 0.005100 0.004848 0.004009
v 0.000000 0.004848 0.004009
v 0.000000 0.003044 0.003983
v 0.001000 0.003044 0.003983
v 0.000000 0.004995 0.003928
v 0.000000 0.007570 0.003900
v 0.000000 0.010145 0.000128
v 0.000000 0.010366 0.004300
v 0.005100 0.002149 0.000000
v 0.000000 0.002149 0.000000
v 0.005100 0.003004 0.002106
v 0.005100 0.003198 0.002236
v 0.005100 0.003329 0.002430
v 0.005100 0.010145 0.000128
v 0.005100 0.005160 0.003900
v 0.005100 0.010366 0.004300
v 0.000000 0.005160 0.003900
v 0.001000 0.003374 0.002660
v 0.005100 0.004995 0.003928
v 0.001000 0.002689 0.003868
v 0.000000 0.002689 0.003868
v 0.000000 0.010853 0.000497
v 0.000000 0.010725 0.004300
v 0.005100 0.001411 0.000141
v 0.005100 0.002774 0.002060
v 0.005100 0.002134 0.002060
v 0.000000 0.002317 0.003891
v 0.000000 0.001411 0.000141
v 0.001000 0.003198 0.002236
v 0.001000 0.003004 0.002106
v 0.001000 0.003329 0.002430
v 0.005100 0.010853 0.000497
v 0.005100 0.010725 0.004300
v 0.001000 0.002317 0.003891
v 0.001000 0.002134 0.002060
v 0.001000 0.002774 0.002060
v 0.000000 0.011408 0.001071
v 0.000000 0.011168 0.004385
v 0.005100 0.001949 0.002096
v 0.005100 0.000777 0.000545
v 0.000000 0.000777 0.000545
v 0.000000 0.000336 0.001154
v 0.001000 0.001979 0.004049
v 0.000000 0.000152 0.001882
v 0.000000 0.001979 0.004049
v 0.005100 0.011408 0.001071
v 0.005100 0.011168 0.004385
v 0.001000 0.001949 0.002096
v 0.001000 0.001790 0.002197
v 0.001000 0.001680 0.002350
v 0.001000 0.001635 0.002533
v 0.000000 0.012874 0.004387
v 0.000000 0.011549 0.004628
v 0.005100 0.001790 0.002197
v 0.005100 0.000336 0.001154
v 0.005100 0.000152 0.001882
v 0.001000 0.001569 0.003773
v 0.001000 0.001595 0.003962
v 0.001000 0.001648 0.004266
v 0.001000 0.001723 0.004320
v 0.000000 0.001723 0.004320
v 0.000000 0.000000 0.004463
v 0.005100 0.011549 0.004628
v 0.005100 0.012874 0.004387
v 0.005100 0.001680 0.002350
v 0.005100 0.001635 0.002533
v 0.005100 0.001569 0.003773
v 0.000000 0.012886 0.004498
v 0.000000 0.011813 0.004995
v 0.005100 0.000000 0.004463
v 0.005100 0.001595 0.003962
v 0.001000 0.001606 0.004573
v 0.005100 0.001648 0.004266
v 0.000000 0.001583 0.004666
v 0.005100 0.000038 0.004759
v 0.000000 0.001472 0.004943
v 0.000000 0.000038 0.004759
v 0.000000 0.001266 0.005159
v 0.000000 0.000995 0.005285
v 0.005100 0.011813 0.004995
v 0.005100 0.012886 0.004498
v 0.000000 0.011831 0.005046
v 0.000000 0.012886 0.005241
v 0.005100 0.012886 0.005241
v 0.005100 0.000995 0.005285
v 0.005100 0.001266 0.005159
v 0.005100 0.001472 0.004943
v 0.005100 0.001583 0.004666
v 0.005100 0.001606 0.004573
v 0.005100 0.000183 0.005021
v 0.000000 0.000183 0.005021
v 0.000000 0.000697 0.005304
v 0.005100 0.011831 0.005046
v 0.000000 0.011836 0.005100
v 0.000000 0.012876 0.005305
v 0.005100 0.011836 0.005100
v 0.005100 0.012876 0.005305
v 0.005100 0.000697 0.005304
v 0.005100 0.000413 0.005211
v 0.000000 0.000413 0.005211
v 0.000000 0.012845 0.005363
v 0.000000 0.012798 0.005407
v 0.000000 0.011836 0.005350
v 0.000000 0.012738 0.005434
v 0.000000 0.012151 0.005591
v 0.005100 0.012738 0.005434
v 0.005100 0.012151 0.005591
v 0.005100 0.011836 0.005350
v 0.005100 0.012798 0.005407
v 0.005100 0.012845 0.005363
v 0.000000 0.012060 0.005599
v 0.000000 0.011973 0.005573
v 0.000000 0.011901 0.005517
v 0.005100 0.011853 0.005440
v 0.000000 0.011853 0.005440
v 0.005100 0.012060 0.005599
v 0.005100 0.011973 0.005573
v 0.005100 0.011901 0.005517
vn 0.0000 0.0000 1.0000
vn -1.0000 0.0000 0.0000
vn 0.0000 0.9753 -0.2210
vn 0.0000 0.9310 0.3649
vn 1.0000 0.0000 0.0000
vn 0.0000 -0.9756 0.2196
vn 0.0000 -0.9766 0.2149
vn 0.0000 -0.8832 0.4689
vn 0.0000 -0.8833 0.4689
vn 0.0000 0.9983 0.0580
vn 0.0000 -0.9152 0.4029
vn 0.0000 0.7547 0.6560
vn 1.0000 0.0002 0.0000
vn 0.0000 -0.6983 0.7158
vn 0.0000 0.9234 0.3837
vn 0.0175 -0.8737 0.4861
vn 0.0000 -0.9283 0.3719
vn 0.0000 -0.8244 0.5660
vn 0.0000 -0.4475 0.8943
vn 0.0000 0.4908 0.8712
vn 0.0000 -0.1539 0.9881
vn 0.0000 -0.9919 0.1269
vn 0.0000 -1.0000 0.0000
vn 0.0000 0.7449 0.6672
vn 0.0000 -0.6350 0.7725
vn 0.0000 0.1701 0.9854
vn 0.0000 0.0000 -1.0000
vn 0.0000 0.1598 -0.9872
vn 0.0000 -0.9808 0.1952
vn 0.0000 0.4834 0.8754
vn 0.0000 -0.3078 0.9514
vn 0.0000 0.1673 0.9859
vn 0.0000 0.4629 -0.8864
vn 0.0000 -0.1879 -0.9822
vn 0.0000 -0.5555 0.8315
vn 0.0000 -0.1952 0.9808
vn 0.0000 -0.8315 0.5556
vn 0.0000 0.0622 0.9981
vn 0.0000 0.7188 -0.6952
vn 0.0000 -0.1882 0.9821
vn 0.0000 -0.5371 -0.8435
vn 0.0000 0.1883 0.9821
vn 0.0000 0.4237 0.9058
vn 0.0000 0.9146 -0.4044
vn 0.0000 -0.5381 0.8429
vn 0.0000 0.5389 0.8423
vn 0.0000 -0.8104 -0.5858
vn 0.0000 -0.9695 -0.2453
vn 0.0000 0.7259 0.6878
vn 0.0000 -0.9983 -0.0588
vn 0.0000 0.8125 0.5829
vn 0.0000 0.9706 0.2408
vn 0.0000 0.9986 0.0534
vn 0.0000 0.9937 -0.1117
vn 0.0000 -0.8115 0.5844
vn 0.0000 0.9905 -0.1372
vn 0.0000 0.9849 -0.1734
vn 0.0000 0.9907 0.1358
vn 0.0000 0.9084 0.4181
vn 0.0134 0.9273 0.3740
vn 0.0000 -0.9917 0.1285
vn 0.0000 1.0000 0.0000
vn 0.0000 -0.9478 0.3190
vn 0.0000 0.9705 0.2411
vn 0.0000 0.9274 0.3740
vn 0.0000 -0.8754 0.4834
vn 0.0000 0.7254 0.6883
vn 0.0000 0.4224 0.9064
vn 0.0000 0.0603 0.9982
vn 0.0000 -0.9941 0.1088
vn 0.0000 0.9867 0.1627
vn 0.0000 -0.6370 0.7709
vn 0.0000 -0.3097 0.9508
vn 0.0000 0.8818 0.4716
vn 0.0000 0.6837 0.7297
vn 0.0000 0.4131 0.9107
vn 0.0000 -0.9833 0.1822
vn 0.0000 0.2588 0.9659
vn 0.0000 0.0780 0.9970
vn 0.0000 -0.2831 0.9591
vn 0.0000 -0.6089 0.7932
vn 0.0000 -0.8527 0.5224
usemtl None
s off
f 1//1 2//1 3//1
f 3//1 2//1 4//1
f 3//1 4//1 5//1
f 4//1 2//1 6//1
f 6//1 2//1 7//1
f 6//1 7//1 8//1
f 9//1 10//1 6//1
f 6//1 10//1 11//1
f 6//1 11//1 12//1
f 12//1 4//1 6//1
f 13//1 14//1 15//1
f 15//1 14//1 16//1
f 15//1 16//1 17//1
f 17//1 16//1 18//1
f 14//1 19//1 16//1
f 17//1 20//1 15//1
f 16//2 21//2 18//2
f 18//2 21//2 22//2
f 16//2 19//2 21//2
f 19//3 14//3 21//3
f 13//3 23//3 14//3
f 14//3 23//3 21//3
f 11//2 10//2 24//2
f 24//2 10//2 25//2
f 9//2 26//2 10//2
f 10//2 26//2 25//2
f 9//4 6//4 26//4
f 8//4 27//4 6//4
f 6//4 27//4 26//4
f 8//5 7//5 27//5
f 27//5 7//5 28//5
f 7//5 2//5 28//5
f 13//5 15//5 23//5
f 2//5 1//5 28//5
f 1//6 3//6 28//6
f 5//6 29//6 3//6
f 3//6 29//6 28//6
f 5//2 4//2 29//2
f 15//5 20//5 23//5
f 23//5 20//5 30//5
f 20//7 17//7 30//7
f 31//5 27//5 28//5
f 28//8 29//8 31//8
f 24//9 31//9 29//9
f 4//2 12//2 29//2
f 12//2 11//2 29//2
f 29//2 11//2 24//2
f 23//5 30//5 32//5
f 32//10 33//10 23//10
f 21//10 23//10 33//10
f 33//2 22//2 21//2
f 18//7 22//7 17//7
f 17//7 22//7 30//7
f 34//5 32//5 30//5
f 34//11 30//11 35//11
f 22//11 35//11 30//11
f 36//12 37//12 27//12
f 36//5 27//5 38//5
f 26//12 27//12 37//12
f 38//13 27//13 39//13
f 39//5 27//5 31//5
f 31//14 24//14 39//14
f 25//14 39//14 24//14
f 40//5 32//5 41//5
f 32//5 40//5 42//5
f 34//5 41//5 32//5
f 42//15 43//15 32//15
f 33//15 32//15 43//15
f 33//2 43//2 44//2
f 44//2 22//2 33//2
f 22//16 44//16 35//16
f 41//17 34//17 45//17
f 35//17 45//17 34//17
f 46//18 35//18 44//18
f 35//5 46//5 45//5
f 47//2 25//2 26//2
f 37//2 47//2 26//2
f 39//19 25//19 38//19
f 47//19 38//19 25//19
f 37//20 36//20 48//20
f 38//5 49//5 36//5
f 50//20 48//20 36//20
f 50//5 36//5 49//5
f 47//2 37//2 51//2
f 48//2 51//2 37//2
f 52//5 49//5 38//5
f 38//21 47//21 52//21
f 40//22 41//22 53//22
f 54//5 42//5 40//5
f 40//23 53//23 54//23
f 45//22 53//22 41//22
f 42//5 54//5 55//5
f 55//24 56//24 42//24
f 43//24 42//24 56//24
f 43//2 56//2 44//2
f 57//25 58//25 44//25
f 57//2 44//2 51//2
f 46//25 44//25 58//25
f 51//2 44//2 59//2
f 56//2 59//2 44//2
f 53//5 45//5 46//5
f 46//5 58//5 53//5
f 60//21 52//21 47//21
f 60//2 47//2 51//2
f 51//2 48//2 61//2
f 62//2 61//2 48//2
f 48//26 50//26 62//26
f 63//27 64//27 49//27
f 63//5 49//5 65//5
f 51//27 49//27 64//27
f 66//5 65//5 49//5
f 51//28 61//28 49//28
f 66//5 49//5 67//5
f 68//28 49//28 61//28
f 67//5 49//5 69//5
f 49//5 68//5 50//5
f 52//5 69//5 49//5
f 70//26 62//26 50//26
f 70//5 50//5 68//5
f 51//2 64//2 57//2
f 59//2 71//2 51//2
f 71//2 60//2 51//2
f 52//1 60//1 69//1
f 72//5 53//5 58//5
f 72//23 54//23 53//23
f 67//5 55//5 54//5
f 54//29 72//29 67//29
f 55//5 67//5 73//5
f 73//30 59//30 55//30
f 56//30 55//30 59//30
f 58//31 57//31 74//31
f 75//2 57//2 64//2
f 75//31 74//31 57//31
f 58//5 74//5 72//5
f 59//32 73//32 71//32
f 71//1 69//1 60//1
f 61//2 62//2 76//2
f 61//33 76//33 68//33
f 77//2 76//2 62//2
f 62//1 70//1 77//1
f 63//34 78//34 64//34
f 65//5 79//5 63//5
f 63//5 80//5 78//5
f 79//5 80//5 63//5
f 75//2 64//2 81//2
f 82//34 64//34 78//34
f 82//2 81//2 64//2
f 66//35 83//35 65//35
f 84//35 65//35 83//35
f 65//36 84//36 79//36
f 67//37 85//37 66//37
f 83//37 66//37 85//37
f 73//5 67//5 69//5
f 85//29 67//29 72//29
f 68//5 86//5 70//5
f 86//33 68//33 76//33
f 69//32 71//32 73//32
f 87//1 77//1 70//1
f 87//5 70//5 86//5
f 85//5 72//5 74//5
f 74//38 75//38 88//38
f 85//5 74//5 83//5
f 88//5 89//5 74//5
f 84//5 83//5 74//5
f 90//5 74//5 89//5
f 84//5 74//5 90//5
f 81//38 88//38 75//38
f 76//2 77//2 91//2
f 76//39 91//39 86//39
f 92//2 91//2 77//2
f 77//40 87//40 92//40
f 93//5 78//5 80//5
f 78//5 93//5 94//5
f 78//41 94//41 82//41
f 90//36 79//36 84//36
f 79//1 90//1 80//1
f 80//42 89//42 93//42
f 89//1 80//1 90//1
f 82//2 95//2 81//2
f 96//2 81//2 95//2
f 88//43 81//43 97//43
f 96//2 98//2 81//2
f 99//43 97//43 81//43
f 99//2 81//2 98//2
f 95//41 82//41 94//41
f 100//39 86//39 91//39
f 86//5 100//5 87//5
f 101//40 92//40 87//40
f 101//5 87//5 100//5
f 102//5 89//5 88//5
f 102//5 88//5 103//5
f 104//5 103//5 88//5
f 105//5 104//5 88//5
f 88//5 97//5 105//5
f 102//42 93//42 89//42
f 91//44 106//44 100//44
f 106//2 91//2 107//2
f 92//2 107//2 91//2
f 92//45 101//45 107//45
f 93//5 108//5 94//5
f 93//46 102//46 108//46
f 109//5 94//5 108//5
f 94//47 109//47 95//47
f 96//47 95//47 109//47
f 98//48 96//48 110//48
f 109//48 110//48 96//48
f 111//5 105//5 97//5
f 111//5 97//5 112//5
f 112//5 97//5 113//5
f 97//49 99//49 114//49
f 114//5 113//5 97//5
f 99//2 98//2 115//2
f 98//2 116//2 115//2
f 98//50 110//50 116//50
f 115//49 114//49 99//49
f 101//5 100//5 117//5
f 118//5 117//5 100//5
f 118//44 100//44 106//44
f 117//45 107//45 101//45
f 103//46 108//46 102//46
f 108//51 103//51 119//51
f 104//51 119//51 103//51
f 119//52 104//52 120//52
f 105//52 120//52 104//52
f 120//53 105//53 121//53
f 111//53 121//53 105//53
f 106//2 107//2 122//2
f 106//54 122//54 118//54
f 123//2 122//2 107//2
f 107//55 117//55 123//55
f 108//5 119//5 109//5
f 110//5 109//5 119//5
f 119//5 120//5 110//5
f 120//5 121//5 110//5
f 124//50 116//50 110//50
f 124//5 110//5 121//5
f 121//56 111//56 125//56
f 112//56 125//56 111//56
f 112//57 113//57 125//57
f 113//58 126//58 127//58
f 126//5 113//5 114//5
f 127//57 125//57 113//57
f 114//59 115//59 126//59
f 128//2 115//2 116//2
f 128//60 126//60 115//60
f 124//61 129//61 116//61
f 128//2 116//2 130//2
f 131//61 116//61 129//61
f 130//2 116//2 132//2
f 116//2 131//2 133//2
f 133//2 132//2 116//2
f 134//55 123//55 117//55
f 134//5 117//5 135//5
f 118//5 135//5 117//5
f 135//54 118//54 122//54
f 121//5 125//5 124//5
f 123//2 136//2 122//2
f 122//2 136//2 137//2
f 137//62 138//62 122//62
f 135//62 122//62 138//62
f 123//63 134//63 136//63
f 139//5 124//5 140//5
f 124//5 139//5 129//5
f 141//5 140//5 124//5
f 142//5 141//5 124//5
f 143//5 142//5 124//5
f 143//5 124//5 127//5
f 125//5 127//5 124//5
f 143//58 127//58 126//58
f 143//64 126//64 142//64
f 128//64 142//64 126//64
f 128//65 130//65 142//65
f 144//5 129//5 139//5
f 129//66 144//66 131//66
f 130//67 132//67 141//67
f 141//65 142//65 130//65
f 145//2 133//2 131//2
f 145//66 131//66 144//66
f 132//68 133//68 140//68
f 140//67 141//67 132//67
f 133//2 145//2 146//2
f 133//69 146//69 139//69
f 139//68 140//68 133//68
f 134//5 135//5 147//5
f 147//63 136//63 134//63
f 135//5 138//5 147//5
f 136//70 147//70 148//70
f 148//2 137//2 136//2
f 137//2 148//2 149//2
f 137//71 149//71 138//71
f 150//5 147//5 138//5
f 138//5 151//5 150//5
f 151//71 138//71 149//71
f 139//5 152//5 144//5
f 152//69 139//69 146//69
f 144//72 153//72 145//72
f 153//5 144//5 152//5
f 154//2 146//2 145//2
f 154//72 145//72 153//72
f 146//73 154//73 152//73
f 150//70 148//70 147//70
f 155//2 149//2 148//2
f 155//2 148//2 156//2
f 148//23 150//23 157//23
f 158//2 156//2 148//2
f 148//2 157//2 159//2
f 158//2 148//2 159//2
f 149//74 155//74 151//74
f 160//5 161//5 150//5
f 150//5 161//5 162//5
f 160//5 150//5 163//5
f 162//23 157//23 150//23
f 164//5 163//5 150//5
f 164//5 150//5 151//5
f 164//74 151//74 155//74
f 153//73 152//73 154//73
f 155//75 156//75 164//75
f 156//76 158//76 163//76
f 163//75 164//75 156//75
f 159//2 157//2 165//2
f 165//2 157//2 166//2
f 167//2 166//2 157//2
f 162//77 168//77 157//77
f 169//2 167//2 157//2
f 169//77 157//77 168//77
f 159//78 161//78 158//78
f 160//76 163//76 158//76
f 160//78 158//78 161//78
f 159//79 165//79 161//79
f 161//5 170//5 162//5
f 170//79 161//79 165//79
f 170//5 171//5 162//5
f 172//5 162//5 171//5
f 168//5 162//5 172//5
f 165//80 166//80 170//80
f 166//81 167//81 171//81
f 171//80 170//80 166//80
f 167//82 169//82 172//82
f 172//81 171//81 167//81
f 168//82 172//82 169//82
